<svg width="25" height="25" fill="none" xmlns="http://www.w3.org/2000/svg"><path fill-rule="evenodd" clip-rule="evenodd" d="M24.355 4.317c.308.792.523 1.705.581 3.033.059 1.333.064 1.758.064 5.152 0 3.395-.015 3.82-.073 5.153-.059 1.328-.274 2.237-.581 3.033a6.395 6.395 0 0 1-3.66 3.658c-.79.307-1.704.522-3.032.58-1.334.06-1.759.074-5.154.074s-3.82-.015-5.153-.073c-1.33-.059-2.238-.274-3.034-.581A6.153 6.153 0 0 1 2.1 22.905a6.164 6.164 0 0 1-1.445-2.217c-.308-.792-.523-1.705-.582-3.033C.015 16.322 0 15.897 0 12.502c0-3.394.015-3.819.078-5.157C.137 6.017.352 5.11.66 4.312A6.155 6.155 0 0 1 2.1 2.1 6.101 6.101 0 0 1 4.318.654C5.11.347 6.023.132 7.351.074 8.685.013 9.11 0 12.505 0s3.82.015 5.158.078c1.329.059 2.237.274 3.034.581.83.313 1.587.806 2.212 1.441a6.1 6.1 0 0 1 1.446 2.217Zm-2.1 15.56c.17-.44.376-1.099.43-2.32.058-1.318.073-1.71.073-5.045s-.015-3.73-.073-5.05c-.054-1.216-.26-1.88-.43-2.32a3.887 3.887 0 0 0-.933-1.435 3.845 3.845 0 0 0-1.436-.933c-.44-.17-1.1-.376-2.32-.43-1.315-.058-1.71-.073-5.051-.073-3.336 0-3.732.015-5.051.073-1.216.054-1.88.26-2.32.43-.543.2-1.031.518-1.436.933a3.8 3.8 0 0 0-.938 1.436c-.171.44-.376 1.099-.43 2.32-.059 1.313-.073 1.714-.073 5.05 0 3.335.014 3.73.073 5.05.054 1.215.259 1.88.43 2.319.2.542.517 1.03.933 1.436.4.415.894.732 1.436.933.44.17 1.099.376 2.32.43 1.314.058 1.715.072 5.05.072 3.337 0 3.733-.014 5.052-.073 1.216-.053 1.88-.258 2.32-.43a4.148 4.148 0 0 0 2.374-2.373Z" fill="#fff"/><path fill-rule="evenodd" clip-rule="evenodd" d="M5.208 12.5c0-3.45 3.033-6.25 6.771-6.25 3.739 0 6.771 2.8 6.771 6.25s-3.033 6.25-6.77 6.25c-3.739 0-6.772-2.8-6.772-6.25Zm2.38 0c0 2.239 1.966 4.054 4.391 4.054 2.426 0 4.393-1.815 4.393-4.054 0-2.239-1.967-4.054-4.393-4.054-2.425 0-4.392 1.815-4.392 4.054ZM20.834 5.208c0 1.15-.7 2.084-1.563 2.084s-1.563-.933-1.563-2.084c0-1.15.7-2.083 1.563-2.083s1.563.933 1.563 2.083Z" fill="#fff"/></svg>