<svg width="43" height="32" fill="none" xmlns="http://www.w3.org/2000/svg"><path fill-rule="evenodd" clip-rule="evenodd" d="M38.969 0H4.03C1.808 0 0 1.794 0 4v24c0 2.206 1.808 4 4.031 4H38.97C41.192 32 43 30.206 43 28V4c0-2.206-1.808-4-4.031-4Zm0 2.667c.182 0 .356.037.515.103L21.5 18.236 3.516 2.77c.159-.066.333-.103.515-.103H38.97Zm0 26.666H4.03A1.34 1.34 0 0 1 2.687 28V5.587l17.932 15.42c.254.218.567.326.881.326.314 0 .627-.108.88-.325l17.933-15.42V28a1.34 1.34 0 0 1-1.344 1.333Z" fill="#008BFE"/></svg>