<svg width="40" height="40" fill="none" xmlns="http://www.w3.org/2000/svg"><path fill-rule="evenodd" clip-rule="evenodd" d="m38.972 29.503-4.973-4.973a3.52 3.52 0 0 0-4.973 0l-2.26 2.26a2.667 2.667 0 0 1-3.767 0l-9.797-9.805a2.662 2.662 0 0 1 0-3.767l2.26-2.26a3.514 3.514 0 0 0-.001-4.974L10.489 1.03a3.52 3.52 0 0 0-4.969-.004L3.708 2.821c-4.944 4.944-4.944 12.988 0 17.931L19.23 36.283c4.956 4.956 12.977 4.956 17.932 0l1.809-1.808a3.52 3.52 0 0 0 0-4.972ZM7.174 2.686a1.174 1.174 0 0 1 1.659.001l4.971 4.956c.458.458.458 1.2 0 1.657l-.829.83L6.35 3.502l.825-.817Zm13.715 31.94L5.366 19.095a10.304 10.304 0 0 1-.647-13.907l6.607 6.607a5.003 5.003 0 0 0 .218 6.848l9.797 9.804a5.003 5.003 0 0 0 6.848.219l6.607 6.607a10.285 10.285 0 0 1-13.907-.647Zm16.425-1.808-.829.828-6.63-6.63.829-.828a1.174 1.174 0 0 1 1.657 0l4.973 4.972c.457.457.457 1.2 0 1.658Z" fill="#008BFE"/></svg>