<svg width="26" height="37" fill="none" xmlns="http://www.w3.org/2000/svg"><path fill-rule="evenodd" clip-rule="evenodd" d="M13 0C5.832 0 0 5.735 0 12.784a12.6 12.6 0 0 0 1.94 6.722L12.26 35.86c.198.313.546.504.92.504h.01c.377-.003.726-.2.92-.518l10.056-16.512A12.608 12.608 0 0 0 26 12.784C26 5.734 20.168 0 13 0Zm9.307 18.24-9.143 15.012-9.382-14.868a10.51 10.51 0 0 1-1.63-5.6C2.152 6.91 7.027 2.116 13 2.116c5.974 0 10.84 4.794 10.84 10.668a10.51 10.51 0 0 1-1.533 5.456Z" fill="#008BFE"/><path fill-rule="evenodd" clip-rule="evenodd" d="M13 6.818c-3.727 0-6.76 2.804-6.76 6.25 0 3.425 2.983 6.25 6.76 6.25 3.824 0 6.76-2.863 6.76-6.25 0-3.446-3.032-6.25-6.76-6.25Zm0 10.43c-2.498 0-4.522-1.877-4.522-4.18 0-2.297 2.037-4.18 4.522-4.18 2.485 0 4.514 1.883 4.514 4.18 0 2.27-1.976 4.18-4.514 4.18Z" fill="#008BFE"/></svg>