<svg width="60" height="31" fill="none" xmlns="http://www.w3.org/2000/svg"><path fill-rule="evenodd" clip-rule="evenodd" d="m7.943 9.527-4.82 2.093C1.217 12.45-.012 14.274 0 16.273v3.8c0 2.818 2.36 5.145 5.324 5.145h1.475c.615 2.28 2.496 4.057 4.894 4.653 3.651.9 7.377-1.181 8.324-4.653h20.655c.615 2.28 2.496 4.057 4.894 4.653 3.651.9 7.377-1.181 8.323-4.653h.787c2.963 0 5.324-2.327 5.324-5.145v-3.332c0-2.291-1.61-4.314-3.934-4.922l-9.16-2.385-5.496-6.84C40.13 1.004 38.14.081 36.037.081H17.914c-2.324-.012-4.488 1.122-5.717 2.993L7.943 9.527ZM51.652 23.57c0 2.291-1.955 4.15-4.365 4.15-2.422-.012-4.377-1.87-4.365-4.15 0-2.292 1.955-4.151 4.365-4.151s4.365 1.859 4.365 4.15Zm-38.238 4.15c2.41 0 4.365-1.859 4.365-4.15 0-2.292-1.955-4.151-4.365-4.151s-4.365 1.859-4.365 4.15c-.012 2.28 1.943 4.14 4.365 4.151Zm-6.787-4.841H5.324c-1.61 0-2.865-1.274-2.865-2.806h.013v-3.8c-.013-1.087.651-2.07 1.684-2.525l5.14-2.233c.209-.094.405-.246.528-.445l4.451-6.757c.775-1.193 2.164-1.906 3.64-1.894h18.122c1.34 0 2.607.584 3.43 1.59l5.73 7.143c.16.21.393.351.652.421l9.578 2.49c1.266.34 2.139 1.427 2.127 2.678v3.332c0 1.532-1.255 2.806-2.865 2.806h-.615c-.344-3.017-2.852-5.413-6.037-5.74-3.75-.398-7.13 2.174-7.537 5.74H20.201c-.344-3.017-2.852-5.413-6.037-5.74-3.75-.398-7.13 2.174-7.537 5.74Z" fill="#000"/></svg>