<svg width="80" height="28" fill="none" xmlns="http://www.w3.org/2000/svg"><path d="M20.637 19.083h38.77l-.265 1.417.05 1.445h-38.34l.05-1.445-.265-1.417Z" fill="#000"/><path fill-rule="evenodd" clip-rule="evenodd" d="m74.385 9.238-9.214-.96-7.872-7.05A4.916 4.916 0 0 0 54.075 0H17.891c-1.74 0-3.353.901-4.309 2.407L9.846 8.23h-4.57C2.366 8.23 0 10.69 0 13.716v6.858c0 .758.59 1.371 1.319 1.371h6.027L7.295 20.5l.23-1.298H2.638v-5.486c0-1.513 1.183-2.743 2.638-2.743h5.275c.44 0 .852-.23 1.096-.61l4.132-6.439c.471-.739 1.26-1.18 2.115-1.18H54.07a2.32 2.32 0 0 1 1.517.573l8.177 7.324c.206.182.46.296.73.325l9.628 1.001c1.36.141 2.38 1.321 2.374 2.75v4.485h-3.978l.235 1.376-.056 1.367h5.118c.729 0 1.319-.613 1.319-1.371v-5.85c.013-2.843-2.029-5.201-4.75-5.486Z" fill="#000"/><path fill-rule="evenodd" clip-rule="evenodd" d="M7.277 20.991c0-3.683 3.06-6.679 6.822-6.679 3.761 0 6.822 2.996 6.822 6.68 0 3.682-3.06 6.678-6.822 6.678s-6.822-2.996-6.822-6.679Zm2.728 0c0 2.21 1.837 4.008 4.094 4.008 2.256 0 4.093-1.798 4.093-4.008 0-2.209-1.837-4.007-4.093-4.007-2.257 0-4.094 1.798-4.094 4.007ZM59.123 20.991c0-3.683 3.06-6.679 6.822-6.679s6.822 2.996 6.822 6.68c0 3.682-3.06 6.678-6.822 6.678-3.761 0-6.821-2.996-6.821-6.679Zm2.73 0c0 2.21 1.836 4.008 4.092 4.008 2.257 0 4.094-1.798 4.094-4.008 0-2.209-1.837-4.007-4.094-4.007-2.256 0-4.093 1.798-4.093 4.007Z" fill="#000"/><path d="M12.522 9h49.411l2.562 1.966-53.92.006.733-.248L12.522 9ZM34.565 2.743h2.728V9h-2.728V2.743ZM49.118 2.743h2.729V9h-2.729V2.743ZM20.011 2.743h2.729V9H20.01V2.743ZM73.677 13.358h2.487l.333.642v2.22h-2.82v-2.862Z" fill="#000"/><path fill-rule="evenodd" clip-rule="evenodd" d="M5.64 10.973v2.576H2.643l-.005 2.672h4.275c.703 0 1.273-.597 1.273-1.336v-3.912H5.64Z" fill="#000"/></svg>