<svg width="140" height="15" fill="none" xmlns="http://www.w3.org/2000/svg"><path d="M5.685 15a10.14 10.14 0 0 1-2.226-.232c-.69-.141-1.292-.36-1.81-.655A3.56 3.56 0 0 1 .438 12.95C.146 12.486 0 11.937 0 11.303c0-.197.013-.409.04-.634.04-.225.08-.415.119-.57h2.604c-.013.084-.04.204-.08.359-.026.14-.04.267-.04.38 0 .38.113.711.339.993.225.268.55.472.974.613.424.14.927.21 1.51.21.597 0 1.107-.048 1.53-.147.438-.098.796-.232 1.074-.401.279-.184.484-.402.617-.655.132-.254.198-.529.198-.824 0-.324-.092-.599-.278-.824a2.265 2.265 0 0 0-.716-.592 6.013 6.013 0 0 0-1.033-.443 45.23 45.23 0 0 0-1.213-.38c-.49-.156-.987-.325-1.49-.508a6.867 6.867 0 0 1-1.372-.74 3.569 3.569 0 0 1-.994-1.077c-.239-.436-.358-.964-.358-1.584 0-.76.146-1.416.438-1.965A4.042 4.042 0 0 1 3.1 1.12 5.572 5.572 0 0 1 4.91.275 8.403 8.403 0 0 1 7.076 0c.743 0 1.425.07 2.048.211.636.127 1.186.331 1.65.613.477.268.848.62 1.113 1.056.265.437.397.951.397 1.543 0 .126-.006.274-.02.443-.013.155-.04.36-.079.613H9.621c.04-.155.06-.268.06-.338.013-.085.02-.148.02-.19 0-.507-.226-.902-.677-1.183-.437-.296-1.04-.444-1.808-.444-.623 0-1.173.07-1.65.211-.464.141-.829.345-1.094.613-.251.253-.377.57-.377.95 0 .254.073.48.218.677.146.183.345.345.597.486.265.126.563.253.894.38.345.113.703.225 1.074.338.53.169 1.066.352 1.61.55.556.196 1.067.45 1.53.76.477.296.855.676 1.133 1.14.292.451.438 1.008.438 1.67 0 .901-.173 1.662-.517 2.281a4.27 4.27 0 0 1-1.352 1.521 5.999 5.999 0 0 1-1.888.845A9.144 9.144 0 0 1 5.685 15ZM12.94 14.746 15.345.254H26l-.398 2.345h-8.05l-.596 3.57h7.195l-.378 2.345h-7.215l-.636 3.887h8.19l-.398 2.345H12.94ZM25.918 14.746 28.303.254h2.584L28.9 12.359h6.838l-.397 2.387h-9.422ZM36.837 14.746 39.242.254h10.654L49.5 2.599h-8.05l-.597 3.57h7.196l-.378 2.345h-7.215l-.636 3.887h8.189l-.398 2.345H36.838ZM55.977 15c-1.842 0-3.267-.444-4.274-1.331-.994-.901-1.491-2.331-1.491-4.289 0-.394.013-.781.04-1.162.04-.38.086-.753.139-1.12.252-1.464.709-2.725 1.371-3.781.663-1.07 1.518-1.887 2.565-2.45C55.387.288 56.613 0 58.004 0c1.06 0 2.001.162 2.823.486.821.324 1.464.817 1.928 1.479.477.648.715 1.472.715 2.472 0 .183-.013.373-.04.57a8.973 8.973 0 0 1-.059.592h-2.664c.027-.127.04-.247.04-.36.013-.126.02-.239.02-.338 0-.577-.12-1.056-.358-1.436a2.038 2.038 0 0 0-.974-.845c-.41-.183-.9-.275-1.47-.275-.677 0-1.286.113-1.83.338-.53.211-1 .521-1.41.93a5.216 5.216 0 0 0-.995 1.479 8.223 8.223 0 0 0-.596 1.943c-.053.268-.1.507-.14.719a31.61 31.61 0 0 1-.079.591c-.013.17-.026.331-.04.486v.444c0 .76.113 1.394.339 1.901.225.493.57.866 1.033 1.12.477.24 1.067.359 1.77.359.728 0 1.377-.12 1.947-.36a3.74 3.74 0 0 0 1.451-1.098c.385-.479.636-1.07.756-1.774h2.564c-.199 1.267-.623 2.316-1.272 3.147a6.09 6.09 0 0 1-2.406 1.838c-.94.395-1.967.592-3.08.592ZM66.674 14.746 68.682 2.62h-4.353l.397-2.366h11.29L75.64 2.62h-4.373l-2.008 12.127h-2.584ZM79.57 13.479V9.127h-3.717v-2.07h3.717V2.682h1.928v4.373h3.737v2.07h-3.737v4.353H79.57Z" fill="#008BFE"/><path d="M86.348 14.746 88.754.254h6.798c.954 0 1.742.147 2.365.443.623.296 1.087.711 1.392 1.247.318.535.477 1.176.477 1.922 0 .831-.12 1.578-.358 2.24a4.73 4.73 0 0 1-1.054 1.71c-.45.466-1.02.832-1.71 1.1l1.85 5.83H95.77L94.16 9.38h-4.333l-.894 5.366h-2.585Zm3.877-7.69h4.333c.49 0 .927-.112 1.312-.338.384-.24.689-.57.914-.993.225-.422.338-.922.338-1.5 0-.52-.152-.922-.457-1.204-.292-.282-.729-.422-1.312-.422H90.96l-.735 4.457ZM100.199 14.746 102.604.254h10.655l-.398 2.345h-8.05l-.597 3.57h7.196l-.378 2.345h-7.215l-.636 3.887h8.189l-.397 2.345h-10.774ZM113.157 14.746 115.562.254h2.465l4.154 8.43c.067.126.139.288.219.485a21.741 21.741 0 0 1 .517 1.099l.119-.022a50.795 50.795 0 0 1 .199-1.478l1.391-8.514h2.485l-2.405 14.492h-2.445l-3.956-8.091c-.119-.24-.272-.556-.457-.95-.186-.41-.345-.754-.477-1.036h-.119c-.027.24-.067.542-.12.908-.053.353-.099.648-.139.888l-1.351 8.282h-2.485ZM130.658 14.746l2.007-12.126h-4.353l.398-2.366H140l-.378 2.366h-4.373l-2.007 12.127h-2.584Z" fill="#fff"/></svg>