<svg width="40" height="25" fill="none" xmlns="http://www.w3.org/2000/svg"><path d="M27.897 8.34H12.104a.632.632 0 1 0 0 1.263h15.793a.632.632 0 1 0 0-1.263ZM5.505 11.202H3.166a.632.632 0 1 0 0 1.263h2.34c1.155 0 2.13.79 2.41 1.856H3.329a.632.632 0 1 0 0 1.263h5.303c.35 0 .633-.283.633-.632a3.758 3.758 0 0 0-3.759-3.75ZM34.495 12.465h2.34a.632.632 0 1 0 0-1.263h-2.34a3.759 3.759 0 0 0-3.759 3.75c0 .349.284.632.633.632h5.303a.632.632 0 1 0 0-1.263h-4.588a2.496 2.496 0 0 1 2.411-1.856Z" fill="#008BFE"/><path d="M38.708 8.427a4.654 4.654 0 0 0-3.392-1.434.633.633 0 0 0-.169.023l-2.034.56-2.996-5.743C29.58.805 28.25 0 27.088 0H12.912C11.75 0 10.42.805 9.883 1.833L6.887 7.576l-2.034-.56a.633.633 0 0 0-.169-.023 4.654 4.654 0 0 0-4.68 4.883l.46 9.136c.017.336.295.6.632.6h.211v2.757c0 .348.284.631.633.631H8.6c.35 0 .633-.283.633-.631v-.863a.632.632 0 0 0-1.266 0v.231H2.573v-2.126h34.854v2.126h-5.394v-.231a.632.632 0 0 0-1.266 0v.863c0 .348.284.631.633.631h6.66c.35 0 .633-.283.633-.631V21.61h.21a.632.632 0 0 0 .633-.6l.46-9.14a4.631 4.631 0 0 0-1.288-3.444Zm.023 3.385-.43 8.537H1.699l-.429-8.533A3.381 3.381 0 0 1 2.206 9.3a3.393 3.393 0 0 1 2.396-1.043l2.435.671.004.001 2.362.651a.631.631 0 1 0 .337-1.217L8.134 7.92l2.872-5.503c.32-.615 1.211-1.154 1.906-1.154h14.176c.695 0 1.585.54 1.906 1.154l2.872 5.503-1.606.443a.631.631 0 1 0 .337 1.217l4.801-1.323c.92.02 1.768.39 2.396 1.043a3.38 3.38 0 0 1 .937 2.512Z" fill="#008BFE"/><path d="M35.316 5.73h2.204a.632.632 0 1 0 0-1.263h-2.204a.632.632 0 1 0 0 1.263ZM2.48 5.73h2.204a.632.632 0 1 0 0-1.263H2.48a.632.632 0 1 0 0 1.263ZM27.02 16.135H12.98a.632.632 0 0 0-.633.632v1.687a.632.632 0 0 0 1.266 0v-1.056h12.774v1.056a.632.632 0 0 0 1.266 0v-1.687a.632.632 0 0 0-.633-.632ZM23.51 12.97a.632.632 0 1 0 0-1.263h-7.02a.632.632 0 1 0 0 1.263h7.02Z" fill="#008BFE"/></svg>