<svg width="40" height="35" fill="none" xmlns="http://www.w3.org/2000/svg"><path fill-rule="evenodd" clip-rule="evenodd" d="M39.748 11.249 34.514.874C34.243.34 33.644 0 32.989 0H6.859c-.664 0-1.263.34-1.525.874L0 11.422c.933 1.335.524.752 1.114 1.474L19.919 35l19.625-21.966c.336-.26.72-1.02.205-1.785Zm-13.761.122h12.51l-4.776-10.18H28l-2.013 10.18Zm-1.717 1.192-7.381.037 3.03 19.742 4.35-19.78ZM14.84 1.19l1.85 10.18h7.835l2.142-10.18H14.839Zm-1.587 0H6.118l-4.629 10.18h13.427l-1.663-10.18Zm5.449 31.07-3.59-19.698H2.175l16.526 19.699ZM25.778 12.6l-4.641 19.669 17.46-19.7-12.82.031Z" fill="#008BFE"/></svg>