<svg width="40" height="35" fill="none" xmlns="http://www.w3.org/2000/svg"><path fill-rule="evenodd" clip-rule="evenodd" d="M20 17.58c4.282 0 8.889-4.212 8.889-8.246 0-4.034-4.607-8.247-8.889-8.247-4.282 0-8.889 4.213-8.889 8.247S15.718 17.58 20 17.58Zm10-8.246c0 5.157-4.475 9.334-10 9.334S10 14.49 10 9.334 14.475 0 20 0s10 4.177 10 9.334ZM13.473 22.6c-.254-.482-.827-.743-1.386-.615C6.083 23.352 0 26.139 0 30.333v2.608C0 34.078.995 35 2.222 35h35.556C39.005 35 40 34.078 40 32.941v-2.608c0-4.194-6.083-6.981-12.087-8.348-.559-.128-1.132.133-1.386.614l-4.515 3.089a8430.271 8430.271 0 0 1-4.024 0l-4.515-3.089Zm14.55.563-5.28 3.611h-5.486l-5.28-3.61c-2.635.647-5.128 1.558-6.959 2.68-2.026 1.242-3.907 3.417-3.907 4.49v3.58H38.89v-3.58c0-1.073-1.88-3.248-3.907-4.49-1.83-1.122-4.324-2.033-6.96-2.68Z" fill="#008BFE"/></svg>