<svg width="40" height="40" fill="none" xmlns="http://www.w3.org/2000/svg"><path d="M40 5.562c0-1.74-.496-3.118-1.475-4.094-3.927-3.913-14.254.248-23.513 9.476a13.09 13.09 0 0 0-.94 1.06 2.158 2.158 0 0 0-.337-.106C11.07 11.274 2.51 12.728.02 22.682a.624.624 0 0 0 .973.658c3.381-2.453 6.094-3.44 8.462-3.077-.163.297-.329.586-.5.862a.625.625 0 0 0 .09.772l.98.978-1.836 1.828a.624.624 0 0 0 0 .885l6.144 6.123a.623.623 0 0 0 .882 0l1.838-1.832.984.98a.625.625 0 0 0 .769.09c.258-.16.526-.314.802-.466.407 2.38-.578 5.11-3.07 8.523a.625.625 0 0 0 .655.976c9.962-2.478 11.435-11.006 10.82-13.666a1.963 1.963 0 0 0-.14-.403c.398-.314.785-.642 1.147-1.003C35.689 18.262 40 10.666 40 5.562ZM10.036 19.093c-2.438-.514-5.118.2-8.3 2.227 1.565-4.343 4.416-6.395 6.652-7.36 1.677-.725 3.203-.927 4.18-.927.261 0 .482.014.658.037l-3.19 6.023Zm4.737 11.293-5.258-5.24 1.394-1.389 4.543 4.527.715.713-1.394 1.39Zm11.185 1.222c-.967 2.24-3.026 5.093-7.398 6.658 2.029-3.169 2.746-5.837 2.232-8.269l6.046-3.181c.108.821.029 2.687-.88 4.792Zm-4.277-3.567c-1.1.529-2.146 1.032-3.107 1.59l-8.301-8.274c.448-.767.863-1.6 1.282-2.462l2.538-4.792c.531-.822 1.12-1.594 1.802-2.274 8.47-8.442 18.428-12.781 21.748-9.476.735.733 1.107 1.813 1.107 3.21 0 4.715-4.266 12.135-10.614 18.462-1.768 1.762-4.151 2.908-6.455 4.016Z" fill="#008BFE"/><path d="M27.296 8.212a3.803 3.803 0 0 0-1.13 2.714c0 1.026.402 1.99 1.13 2.714a3.848 3.848 0 0 0 2.722 1.121c.986 0 1.971-.374 2.721-1.12a3.803 3.803 0 0 0 1.13-2.715c0-1.026-.401-1.99-1.13-2.714a3.867 3.867 0 0 0-5.443 0Zm4.543 4.523c-1.005 1-2.638 1-3.642 0a2.536 2.536 0 0 1-.753-1.81c0-.682.268-1.324.753-1.807.502-.5 1.162-.75 1.82-.75.66 0 1.32.25 1.822.75.484.483.751 1.125.751 1.808 0 .684-.267 1.326-.751 1.809ZM10.518 30.122a.639.639 0 0 0-.903-.001L3.23 36.485a.639.639 0 1 0 .903.905l6.385-6.364a.639.639 0 0 0 .002-.904ZM3.657 33.206a.639.639 0 0 0 .451-.187l4.206-4.191a.64.64 0 0 0-.903-.905l-4.205 4.191a.64.64 0 0 0 .451 1.092ZM11.82 32.318l-4.205 4.191a.64.64 0 0 0 .902.905l4.206-4.192a.64.64 0 0 0-.903-.904Z" fill="#008BFE"/></svg>