<svg width="40" height="35" fill="none" xmlns="http://www.w3.org/2000/svg"><path fill-rule="evenodd" clip-rule="evenodd" d="M7.708 34.63a2.287 2.287 0 0 0 2.335.094L20 29.29l9.957 5.432a2.29 2.29 0 0 0 2.337-.092c.691-.457 1.015-1.244.826-2.005l-2.573-10.35 8.727-6.986c.641-.511.885-1.322.621-2.062-.263-.74-.98-1.265-1.83-1.335l-11.545-.957-4.565-9.756C21.618.463 20.852 0 20 0c-.852 0-1.619.463-1.955 1.18l-4.565 9.754-11.547.957c-.849.072-1.565.595-1.829 1.335-.263.741-.018 1.55.624 2.062l8.727 6.988-2.574 10.35c-.188.76.135 1.546.827 2.004Zm13.52-6.253a2.566 2.566 0 0 0-2.453 0l-8.57 4.693c-.765.419-1.661-.272-1.452-1.117l2.182-8.81c.197-.785-.094-1.603-.758-2.135l-7.315-5.876c-.704-.566-.357-1.701.543-1.776l9.768-.813c.881-.074 1.64-.582 1.982-1.322l3.94-8.444a1 1 0 0 1 1.812 0l3.934 8.442c.345.745 1.105 1.254 1.987 1.328l9.767.812c.9.075 1.247 1.21.543 1.776l-7.315 5.876c-.662.531-.953 1.35-.758 2.134l2.183 8.809c.21.845-.687 1.536-1.45 1.117l-8.57-4.694Z" fill="#008BFE"/></svg>